<svg width="100" height="100" viewBox="0 0 100 100" fill="none" xmlns="http://www.w3.org/2000/svg">
<path d="M82.6281 30.1505V23.5798H75.2654V17H60.5397V23.5798H53.1769V30.1505H45.8141V23.5798H38.4512V17H23.7256V23.5798H16.3628V30.1505H9V49.8807H16.3628V56.4604H23.7256V63.0401H31.0885V69.6109H38.4512V76.1906H45.8141V82.7704H53.1769V76.1906H60.5397V69.6109H67.9025V63.0401H75.2654V56.4604H82.6281V49.8807H90V30.1505H82.6281Z" fill="#ED1B24"/>
<path d="M24.5218 35.5996V28.7289H37.9015V35.9612H46.2185V42.4702H53.0892V35.9612H61.4063V28.7289H75.1475V35.5996H82.3798V45.7247H75.1475V52.2337H67.9153V58.7427H60.683V65.2518H53.4508V71.7608H46.2185V65.2518H38.9863V58.7427H31.754V52.2337H24.5218V45.7247H17.2896V35.5996H24.5218Z" fill="#0A0A0A"/>
</svg>
