<svg viewBox="0 0 200 300" fill="none" xmlns="http://www.w3.org/2000/svg"><path d="M23.169 10.0005L20.5747 83.8847L30.4915 93.8857L50.32 113.89L70.2547 133.999L80.1715 154.507L70.2547 167.122L30.4915 207.129L20.5747 281.013L34.6256 289.999H181.256L176.781 213.559L169.405 207.129L129.745 167.122L119.829 138.856L129.745 133.892L169.405 93.8857L179.319 10.0005H23.169Z" fill="white"/><path fill-rule="evenodd" clip-rule="evenodd" d="M70.2544 73.884H90.0829V93.8861H70.2544V73.884ZM109.914 73.884H129.743V93.8861H109.914V113.888H90.0859V93.8857H109.914V73.884ZM70.2549 223.56H129.743V243.562H70.2549V223.56ZM144.64 243.565H54.9922V263.567H144.64V243.565ZM90.0859 203.558H109.914V223.56H90.0859V203.558Z" fill="black"/><path fill-rule="evenodd" clip-rule="evenodd" d="M200 0V20.0021H189.233V93.8859H169.405V20.0021H30.4882V93.8859H10.6597V20.0021H0.000473022V0H200ZM200 279.998V300H-1.52588e-05V279.998H10.6597V207.129H30.4882V279.998H169.405V207.129H189.233V279.998H200ZM50.3202 93.8857H30.4917V113.888H50.3202V93.8857ZM149.574 93.8857H169.402V113.888H149.574V93.8857ZM149.574 113.89H129.745V133.892H149.574V113.89ZM50.3203 113.89H70.1488V133.892H50.3203V113.89ZM50.3202 187.127H30.4917V207.129H50.3202V187.127ZM149.574 187.127H169.402V207.129H149.574V187.127ZM149.574 167.122H129.745V187.124H149.574V167.122ZM50.3203 167.122H70.1488V187.124H50.3203V167.122ZM90.0834 134H70.2549V167.125H90.0834V134ZM109.914 133.892H129.743V167.125H109.914V133.892Z" fill="black"/></svg>