<svg width="229" height="182" viewBox="0 0 229 182" fill="none" xmlns="http://www.w3.org/2000/svg">
<path d="M229 28.6375H155.894V19.0916H146.348V0H57.2625V9.54587H47.7166V19.0916H38.1709V28.6375H28.625V38.1709H19.0916V47.7166H9.54587V57.2625H0V124.071H9.54587V133.616H19.0916V143.162H28.625V152.696H38.1709V162.241H47.7166V171.787H57.2625V181.333H146.348V162.241H155.894V152.696H229V28.6375Z" fill="#131313"/>
<path d="M155.948 35.3205V87.3308H223.329V35.3205L155.948 35.3205Z" fill="#ECECEC"/>
<path d="M155.947 94.0163V146.027H223.328V94.0163H155.947Z" fill="#ECECEC"/>
<path d="M202.045 48.9111H177.228V73.7277H202.045V48.9111Z" fill="#131313"/>
<path d="M202.045 107.605H177.228V132.422H202.045V107.605Z" fill="#131313"/>
<path d="M196.32 54.6362H182.954V68.0028H196.32V54.6362Z" fill="#8A8A8A"/>
<path d="M196.32 113.33H182.954V126.697H196.32V113.33Z" fill="#8A8A8A"/>
<path d="M91.9317 62.3698V39H81.5474V62.3698V85.7396H91.9317V62.3698Z" fill="#376CD3"/>
<path d="M60.7689 69.2994H71.1634V58.9048H60.7689H50.3845V69.2994V79.6836H60.7689V69.2994Z" fill="#376CD3"/>
<path d="M50.3843 100.452V90.068V79.6836H40V90.068V100.452V110.847H50.3843V100.452Z" fill="#376CD3"/>
<path d="M50.3845 131.615H60.7689H71.1634V121.231H60.7689V110.847H50.3845V121.231V131.615Z" fill="#376CD3"/>
<path d="M81.5476 142H91.9319H102.316V131.616H91.9319H81.5476H71.1633V142H81.5476Z" fill="#376CD3"/>
<path d="M123.095 131.615V121.231V110.847H112.7V121.231H102.316V131.615H112.7H123.095Z" fill="#376CD3"/>
<path d="M133.479 100.452V90.068V79.6836H123.095V90.068V100.452V110.847H133.479V100.452Z" fill="#376CD3"/>
<path d="M123.095 58.9048H112.7H102.316V69.2994H112.7V79.6836H123.095V69.2994V58.9048Z" fill="#376CD3"/>
</svg>
