<svg width="229" height="182" viewBox="0 0 229 182" fill="none" xmlns="http://www.w3.org/2000/svg">
<path d="M229 28.6375H155.894V19.0916H146.348V0H57.2625V9.54587H47.7166V19.0916H38.1709V28.6375H28.625V38.1709H19.0916V47.7166H9.54587V57.2625H0V124.071H9.54587V133.616H19.0916V143.162H28.625V152.696H38.1709V162.241H47.7166V171.787H57.2625V181.333H146.348V162.241H155.894V152.696H229V28.6375Z" fill="#131313"/>
<path d="M155.948 35.3205V87.3308H223.329V35.3205L155.948 35.3205Z" fill="#ECECEC"/>
<path d="M155.947 94.0163V146.027H223.328V94.0163H155.947Z" fill="#ECECEC"/>
<path d="M202.045 48.9111H177.228V73.7277H202.045V48.9111Z" fill="#131313"/>
<path d="M202.045 107.605H177.228V132.422H202.045V107.605Z" fill="#131313"/>
<path d="M196.32 54.6362H182.954V68.0028H196.32V54.6362Z" fill="#8A8A8A"/>
<path d="M196.32 113.33H182.954V126.697H196.32V113.33Z" fill="#8A8A8A"/>
<path fill-rule="evenodd" clip-rule="evenodd" d="M93.501 46H114V52.8336H100.335V66.4983H100.336H107.168H107.17V73.3319H107.168V73.3323H114.003V80.166H120.834V107.499H114.003V107.502V113.5V114.333H134.501V121.166H114V114.335H107.17V121.166H107H100.336H66.166V114.336V114.335H59.3354V114V107.502V107.5L52.5015 107.499V80.166H59.3354V73.3323H66.166V66.4983H73.0003V52.8336H59.3345V46H79.8339V59.6671H93.501V46ZM73 121.167H100.333V128H73V121.167ZM38.834 66.4983H59.3347V73.3319H38.834V66.4983ZM134.501 66.4983H114V73.3319H134.501V66.4983ZM38.834 114.333H59.3347V121.166H38.834V114.333ZM32 73.3323H38.8336V80.1658H32V73.3323ZM141.336 73.3323H134.502V80.1658H141.336V73.3323ZM32 121.167H38.8336V128H32V121.167ZM141.336 121.167H134.502V128H141.336V121.167Z" fill="#1BED6F"/>
</svg>
