<svg viewBox="0 0 229 182" fill="none" xmlns="http://www.w3.org/2000/svg">
<path d="M229 28.6375H155.894V19.0916H146.348V0H57.2625V9.54587H47.7166V19.0916H38.1709V28.6375H28.625V38.1709H19.0916V47.7166H9.54587V57.2625H0V124.071H9.54587V133.616H19.0916V143.162H28.625V152.696H38.1709V162.241H47.7166V171.787H57.2625V181.333H146.348V162.241H155.894V152.696H229V28.6375Z" fill="#131313"/>
<path d="M155.948 35.3205V87.3308H223.329V35.3205L155.948 35.3205Z" fill="#ECECEC"/>
<path d="M155.947 94.0163V146.027H223.328V94.0163H155.947Z" fill="#ECECEC"/>
<path d="M202.045 48.9111H177.228V73.7277H202.045V48.9111Z" fill="#131313"/>
<path d="M202.045 107.605H177.228V132.422H202.045V107.605Z" fill="#131313"/>
<path d="M196.32 54.6362H182.954V68.0028H196.32V54.6362Z" fill="#8A8A8A"/>
<path d="M196.32 113.33H182.954V126.697H196.32V113.33Z" fill="#8A8A8A"/>
<path d="M129.343 69.9656V60.8803H119.163V51.7825H98.8019V60.8803H88.6213V69.9656H78.4408V60.8803H68.2602V51.7825H47.8992V60.8803H37.7185V69.9656H27.5381V97.2465H37.7185V106.344H47.8992V115.442H58.0798V124.527H68.2602V133.625H78.4408V142.723H88.6213V133.625H98.8019V124.527H108.982V115.442H119.163V106.344H129.343V97.2465H139.536V69.9656H129.343Z" fill="#ED1B24"/>
<path d="M49 77.5V68H67.5V78H79V87H88.5V78H100V68H119V77.5H129V91.5H119V100.5H109V109.5H99V118.5H89V127.5H79V118.5H69V109.5H59V100.5H49V91.5H39V77.5H49Z" fill="#131313"/>
</svg>
