<svg width="229" height="182" viewBox="0 0 229 182" fill="none" xmlns="http://www.w3.org/2000/svg">
<path d="M229 28.6375H155.894V19.0916H146.348V0H57.2625V9.54587H47.7166V19.0916H38.1709V28.6375H28.625V38.1709H19.0916V47.7166H9.54587V57.2625H0V124.071H9.54587V133.616H19.0916V143.162H28.625V152.696H38.1709V162.241H47.7166V171.787H57.2625V181.333H146.348V162.241H155.894V152.696H229V28.6375Z" fill="#131313"/>
<path d="M155.948 35.3205V87.3308H223.329V35.3205L155.948 35.3205Z" fill="#ECECEC"/>
<path d="M155.947 94.0163V146.027H223.328V94.0163H155.947Z" fill="#ECECEC"/>
<path d="M202.045 48.9111H177.228V73.7277H202.045V48.9111Z" fill="#131313"/>
<path d="M202.045 107.605H177.228V132.422H202.045V107.605Z" fill="#131313"/>
<path d="M196.32 54.6362H182.954V68.0028H196.32V54.6362Z" fill="#8A8A8A"/>
<path d="M196.32 113.33H182.954V126.697H196.32V113.33Z" fill="#8A8A8A"/>
<path d="M93.1173 85.3927H99.4456V79.0643H105.774V72.736H112.102V49.3411H67.7292V72.736H74.0575V79.0643H80.386V85.3927L80.4234 85.43H86.7516V95.9191H80.4234L80.386 95.9565V102.26H74.07L74.0575 102.272V108.588H67.7292V131.659H112.102V108.588H105.774V102.26H99.4456V95.9316H93.1173V85.3927ZM80.4481 72.7235V66.3953H86.7766V72.7235H93.1049V66.3953H99.4331V72.7235H93.1049V79.0518H86.7766V72.7235H80.4481ZM99.4456 113.795V120.124H104.204V126.452H75.565V120.124H80.4357V113.795H86.7641V107.467H93.0924V113.795H99.4456Z" fill="#ECECEC"/>
<path d="M86.7769 66.395H80.4485V72.7233H86.7769V66.395Z" fill="#5D5D5D"/>
<path d="M99.4457 66.395H93.1174V72.7233H99.4457V66.395Z" fill="#5D5D5D"/>
<path d="M93.1169 72.7231H86.7886V79.0514H93.1169V72.7231Z" fill="#5D5D5D"/>
<path d="M93.1178 107.454H86.7895V113.795H80.4486V120.123H75.5779V126.464H104.205V120.123H99.446V113.795H93.1178V107.454Z" fill="#5D5D5D"/>
<path d="M118.456 49.3283H121.894V43H58.0002V49.3283H61.4135V72.7232H67.7418V49.3283H112.115V72.7232H118.456V49.3283Z" fill="#5D5D5D"/>
<path d="M67.7413 131.659V108.588H61.4131V131.659H57.9998V138H121.893V131.659H118.455V108.588H112.114V131.659H67.7413Z" fill="#5D5D5D"/>
<path d="M74.0697 72.7231H67.7415V79.0514H74.0697V72.7231Z" fill="#5D5D5D"/>
<path d="M112.114 72.7231H105.786V79.0514H112.114V72.7231Z" fill="#5D5D5D"/>
<path d="M105.773 79.064H99.4448V85.3924H105.773V79.064Z" fill="#5D5D5D"/>
<path d="M80.4105 79.064H74.082V85.3924H80.4105V79.064Z" fill="#5D5D5D"/>
<path d="M74.0822 102.272V102.26H67.7415V108.588H74.0822V102.272Z" fill="#5D5D5D"/>
<path d="M112.114 102.26H105.786V108.588H112.114V102.26Z" fill="#5D5D5D"/>
<path d="M105.773 95.9189H99.4448V102.247H105.773V95.9189Z" fill="#5D5D5D"/>
<path d="M80.4105 102.26V95.9564V95.9189H74.082V102.26H74.0945H80.4105Z" fill="#5D5D5D"/>
<path d="M86.7767 85.4292H80.4482V95.9183H86.7767V85.4292Z" fill="#5D5D5D"/>
<path d="M99.4452 85.3918H93.1169V95.9182H99.4452V85.3918Z" fill="#5D5D5D"/>
</svg>
