<svg width="229" height="182" viewBox="0 0 229 182" fill="none" xmlns="http://www.w3.org/2000/svg">
<path d="M229 28.6375H155.894V19.0916H146.348V0H57.2625V9.54587H47.7166V19.0916H38.1709V28.6375H28.625V38.1709H19.0916V47.7166H9.54587V57.2625H0V124.071H9.54587V133.616H19.0916V143.162H28.625V152.696H38.1709V162.241H47.7166V171.787H57.2625V181.333H146.348V162.241H155.894V152.696H229V28.6375Z" fill="#131313"/>
<path d="M155.948 35.3205V87.3308H223.329V35.3205L155.948 35.3205Z" fill="#ECECEC"/>
<path d="M155.947 94.0163V146.027H223.328V94.0163H155.947Z" fill="#ECECEC"/>
<path d="M202.045 48.9111H177.228V73.7277H202.045V48.9111Z" fill="#131313"/>
<path d="M202.045 107.605H177.228V132.422H202.045V107.605Z" fill="#131313"/>
<path d="M196.32 54.6362H182.954V68.0028H196.32V54.6362Z" fill="#8A8A8A"/>
<path d="M196.32 113.33H182.954V126.697H196.32V113.33Z" fill="#8A8A8A"/>
<path d="M113.813 91.3183H119.533V85.5184H125.271V79.6817H130.991V68.0544H102.345H102.336V56.4272H96.6073V44.8183H90.8509V39H85.1128V44.8183H79.3927V56.4272H73.6636V68.0452H45.0091V79.6726H50.7291V85.5092H56.4673V85.5L56.4764 85.5092H56.4673V91.3183H62.1964V97.1365H56.4673V108.736V108.745H50.7291V120.373H45V132H62.1873V126.182H73.6546V120.373H73.6455L73.6546 120.363V120.373H85.1037V114.573H90.8419V120.382H102.318V126.182H113.785V132H131V120.373H125.28V108.745H119.542V108.736V97.1365H113.813V91.3183ZM96.6254 56.4272V56.464L96.6073 56.4272H96.6254Z" fill="#F8FC3D"/>
</svg>
