<svg width="229" height="182" viewBox="0 0 229 182" fill="none" xmlns="http://www.w3.org/2000/svg">
<path d="M229 28.6375H155.894V19.0916H146.348V0H57.2625V9.54587H47.7166V19.0916H38.1709V28.6375H28.625V38.1709H19.0916V47.7166H9.54587V57.2625H0V124.071H9.54587V133.616H19.0916V143.162H28.625V152.696H38.1709V162.241H47.7166V171.787H57.2625V181.333H146.348V162.241H155.894V152.696H229V28.6375Z" fill="#131313"/>
<path d="M155.948 35.3205V87.3308H223.329V35.3205L155.948 35.3205Z" fill="#ECECEC"/>
<path d="M155.947 94.0163V146.027H223.328V94.0163H155.947Z" fill="#ECECEC"/>
<path d="M202.045 48.9111H177.228V73.7277H202.045V48.9111Z" fill="#131313"/>
<path d="M202.045 107.605H177.228V132.422H202.045V107.605Z" fill="#131313"/>
<path d="M196.32 54.6362H182.954V68.0028H196.32V54.6362Z" fill="#8A8A8A"/>
<path d="M196.32 113.33H182.954V126.697H196.32V113.33Z" fill="#8A8A8A"/>
<path d="M119.88 49.0252H65.1646V67.4177H59.0823V85.8101H53V110.338H65.1646V141H77.3292V134.865H83.4115V128.73H89.4938V122.595H95.576V116.46H101.658V110.325H107.741V104.19H113.823V91.9451H95.5885V85.8101H101.671V79.6751H107.753V73.5401H113.835V67.405H119.918V61.27H126V49H119.88V49.0252Z" fill="#F8FC3D"/>
</svg>
