<svg width="229" height="182" viewBox="0 0 229 182" fill="none" xmlns="http://www.w3.org/2000/svg">
<path d="M229 28.6375H155.894V19.0916H146.348V0H57.2625V9.54587H47.7166V19.0916H38.1709V28.6375H28.625V38.1709H19.0916V47.7166H9.54587V57.2625H0V124.071H9.54587V133.616H19.0916V143.162H28.625V152.696H38.1709V162.241H47.7166V171.787H57.2625V181.333H146.348V162.241H155.894V152.696H229V28.6375Z" fill="#131313"/>
<path d="M155.948 35.3205V87.3308H223.329V35.3205L155.948 35.3205Z" fill="#ECECEC"/>
<path d="M155.947 94.0163V146.027H223.328V94.0163H155.947Z" fill="#ECECEC"/>
<path d="M202.045 48.9111H177.228V73.7277H202.045V48.9111Z" fill="#131313"/>
<path d="M202.045 107.605H177.228V132.422H202.045V107.605Z" fill="#131313"/>
<path d="M196.32 54.6362H182.954V68.0028H196.32V54.6362Z" fill="#8A8A8A"/>
<path d="M196.32 113.33H182.954V126.697H196.32V113.33Z" fill="#8A8A8A"/>
<path d="M136.656 113.123H121.438V128.729C123.767 128.878 126.106 128.878 128.444 128.729V120.963H136.683C136.813 120.091 136.813 113.559 136.656 113.123Z" fill="#B0B0B0"/>
<path d="M51.7089 67.49L51.7367 67.4622C51.848 65.8755 51.7924 52.774 51.6532 52.3008H43.8591V60.5959H36V67.49C36.8629 67.657 50.8274 67.6014 51.7089 67.49Z" fill="#B0B0B0"/>
<path d="M121.475 105.496H113.876V113.086H121.475V105.496Z" fill="#B0B0B0"/>
<path d="M121.438 74.9035V67.332H113.839V74.9035H106.481V67.4898C106.398 67.4805 106.314 67.4805 106.24 67.4898H67.6311C67.5476 67.4805 67.464 67.4805 67.3898 67.4898L67.2785 67.6012V74.9314H59.707V67.4898C58.8812 67.3506 52.3769 67.4063 51.7366 67.4898V74.9592H59.6328C59.7534 75.6273 59.7534 104.976 59.6328 105.486H51.6531V113.457H36.3711V121.325H44.6663V125.315V127.254C44.6291 127.894 44.6291 128.544 44.6663 129.184H51.6717V113.503H59.6421V105.533C60.5885 105.421 67.13 105.449 67.5939 105.533V118.495V121.074H74.9798V113.633H82.5234V121.102C83.7296 121.214 90.6701 121.102 91.1433 121.019V113.772H98.4735V121.102C99.2715 121.241 106.444 121.186 106.926 121.102V105.495H113.876V74.9035H121.438ZM82.8481 97.6363H67.3898C67.2785 97.2188 67.2228 84.0616 67.3898 83.1894H82.7925C82.9038 83.6348 82.9595 96.5693 82.8481 97.6363ZM106.23 98.0168H91.0691V83.1986H106.203C106.314 83.6347 106.37 97.0054 106.23 98.0168Z" fill="#B0B0B0"/>
<path d="M137.064 60.3824H129.298V52.1151C128.416 51.948 121.884 51.9759 121.438 52.1151V67.3322H137.092C137.212 65.0125 137.203 62.6928 137.064 60.3824Z" fill="#B0B0B0"/>
</svg>
