<svg width="361" height="288" viewBox="0 0 361 288" fill="none" xmlns="http://www.w3.org/2000/svg"><path d="M108.643 55.0036H72.6724V63.9962H63.6797V135.937H72.6724V144.93H108.733V136.027H117.635V63.9962H108.643V55.0036ZM45.6945 108.959H27.7992V162.915H9.81391V37.0183H27.7992V90.9741H45.6945V55.0036H54.6871V46.011H63.6797V37.0183H117.635V46.011H126.628V55.0036H135.621V144.93H126.718V154.012H117.635V162.915H63.6797V153.922H54.6871V144.93H45.6945V108.959ZM162.778 144.93H153.876V126.945H171.861V135.937H180.764V144.93H216.824V135.937H225.817V117.952H216.824V108.959H189.846V90.9741H216.824V81.9815H225.817V63.9962H216.824V55.0036H180.854V63.9962H171.861V72.9888H153.876V55.0036H162.868V46.011H171.861V37.0183H225.817V46.011H234.809V55.0036H243.802V90.9741H234.809V108.959H243.802V144.93H234.809V153.922H225.817V162.915H171.861V153.922H162.778V144.93ZM324.736 144.93V135.937H333.728V117.952H324.736V108.959H279.773V144.93H324.736ZM279.773 90.9741H333.728V99.9667H342.721V108.959H351.714V144.93H342.721V153.922H333.728V162.915H261.787V37.0183H342.721V55.0036H279.773V90.9741Z" fill="#ececec"/><path d="M62.8011 198.268V246.475H83.461V239.588H90.3476V205.155H83.461V198.268H62.8011ZM28.3679 198.268V205.155H21.4812V239.588H28.3679V246.475H49.0278V198.268H28.3679ZM62.8011 184.495H90.3476V191.381H97.2343V198.268H104.121V246.475H97.2343V253.361H90.3476V260.248H62.8011V274.021H49.0278V260.248H21.4812V253.361H14.5946V246.475H7.70793V198.268H14.5946V191.381H21.4812V184.495H49.0278V170.653H62.8011V184.495ZM131.805 232.701H173.125V212.041H166.238V205.155H159.352V198.268H145.579V205.155H138.692V212.041H131.805V232.701ZM131.805 274.021H118.032V205.155H124.919V198.268H131.805V191.381H138.692V184.495H145.579V177.608H159.352V184.495H166.238V191.381H173.125V198.268H180.012V205.155H186.898V274.021H173.125V246.475H131.805V274.021ZM214.445 191.381V218.928H248.878V212.041H255.765V198.268H248.878V191.381H214.445ZM214.445 232.701V274.021H200.672V177.608H255.765V184.495H262.651V191.381H269.538V218.928H262.651V225.815H255.765V232.701H214.445ZM297.154 274.021H283.38V191.381H283.311V177.608H297.085V191.381H304.04V198.268H310.927V205.155H324.7V198.268H331.587V191.381H338.542V177.677H352.316V191.45H352.247V274.021H338.473V212.041H331.587V218.928H324.7V232.701H310.927V218.928H304.04V212.041H297.154V274.021Z" fill="#ececec"/></svg>