<svg width="229" height="182" viewBox="0 0 229 182" fill="none" xmlns="http://www.w3.org/2000/svg">
<path d="M229 28.6375H155.894V19.0916H146.348V0H57.2625V9.54587H47.7166V19.0916H38.1709V28.6375H28.625V38.1709H19.0916V47.7166H9.54587V57.2625H0V124.071H9.54587V133.616H19.0916V143.162H28.625V152.696H38.1709V162.241H47.7166V171.787H57.2625V181.333H146.348V162.241H155.894V152.696H229V28.6375Z" fill="#131313"/>
<path d="M155.948 35.3205V87.3308H223.329V35.3205L155.948 35.3205Z" fill="#ECECEC"/>
<path d="M155.947 94.0163V146.027H223.328V94.0163H155.947Z" fill="#ECECEC"/>
<path d="M202.045 48.9111H177.228V73.7277H202.045V48.9111Z" fill="#131313"/>
<path d="M202.045 107.605H177.228V132.422H202.045V107.605Z" fill="#131313"/>
<path d="M196.32 54.6362H182.954V68.0028H196.32V54.6362Z" fill="#8A8A8A"/>
<path d="M196.32 113.33H182.954V126.697H196.32V113.33Z" fill="#8A8A8A"/>
<path d="M103.496 54.5063V44H92.9894H71.9893V54.5063H61.4954V65.0001H71.9893V54.5063H103.496V65.0001H113.989V54.5063H103.496Z" fill="#911BED"/>
<path d="M124.483 65.0002H113.989V86.0002H124.483V65.0002Z" fill="#911BED"/>
<path d="M124.483 86.0002V96.494H113.989V128H124.483V117.494H134.989V86.0002H124.483Z" fill="#911BED"/>
<path d="M50.9891 75.5064V86.0002H61.4953V65.0002H50.9891V75.5064Z" fill="#911BED"/>
<path d="M40.4955 96.494V117.494H50.9891V128H61.4953V96.494H50.9891V86.0002H40.4955V96.494Z" fill="#911BED"/>
</svg>
