<svg width="229" height="182" viewBox="0 0 229 182" fill="none" xmlns="http://www.w3.org/2000/svg">
<path d="M229 28.6375H155.894V19.0916H146.348V0H57.2625V9.54587H47.7166V19.0916H38.1709V28.6375H28.625V38.1709H19.0916V47.7166H9.54587V57.2625H0V124.071H9.54587V133.616H19.0916V143.162H28.625V152.696H38.1709V162.241H47.7166V171.787H57.2625V181.333H146.348V162.241H155.894V152.696H229V28.6375Z" fill="#131313"/>
<path d="M155.948 35.3205V87.3308H223.329V35.3205L155.948 35.3205Z" fill="#ECECEC"/>
<path d="M155.947 94.0163V146.027H223.328V94.0163H155.947Z" fill="#ECECEC"/>
<path d="M202.045 48.9111H177.228V73.7277H202.045V48.9111Z" fill="#131313"/>
<path d="M202.045 107.605H177.228V132.422H202.045V107.605Z" fill="#131313"/>
<path d="M196.32 54.6362H182.954V68.0028H196.32V54.6362Z" fill="#8A8A8A"/>
<path d="M196.32 113.33H182.954V126.697H196.32V113.33Z" fill="#8A8A8A"/>
<path d="M128.8 74.9698V64.5869H123.609V58.5503H118.434V53.3749H113.258V48.1995H102.03V43H70.9456V48.1754H59.7337V53.3507H54.5502V58.5261H76.0888V53.3507H97.7079V58.5583H108.083V63.7337H113.258V68.9091H118.45V80.1291H123.625V100.871H118.458V112.083H113.242V106.891H107.214V100.919H102.03V95.7357H96.8467V90.5523H91.6632V85.3689H86.4799V80.1855H81.2965V75.002H76.113V69.8186H70.9296V64.6352H65.7461V58.5422L66 57H55L54.5 58.5L49.407 58.5422V64.6352H44.1834V74.9779H39V106.038H44.2237V116.429H50.2441V121.588H55.4517V126.772H60.6029V132.817H70.9618V138H102.03V132.817H112.389V126.772H117.564V121.588H122.74V116.365H128.8V106.062H133.976V74.9859H128.8V74.9698ZM108.059 122.434H96.8387V127.617H76.1291V122.434H64.9413V117.258H59.7337V112.075H54.5825V101.708H49.3588V80.1774H54.5422V69.8105H60.5466V74.994H65.73V80.1774H70.9135V85.3608H76.0969V90.5443H81.2804V95.7277H86.4637V100.911H91.6472V106.095H96.8306V111.278H102.859V117.25H108.051V122.434H108.059Z" fill="#ED1B24"/>
</svg>
