<svg width="229" height="182" viewBox="0 0 229 182" fill="none" xmlns="http://www.w3.org/2000/svg">
<path d="M229 28.6375H155.894V19.0916H146.348V0H57.2625V9.54587H47.7166V19.0916H38.1709V28.6375H28.625V38.1709H19.0916V47.7166H9.54587V57.2625H0V124.071H9.54587V133.616H19.0916V143.162H28.625V152.696H38.1709V162.241H47.7166V171.787H57.2625V181.333H146.348V162.241H155.894V152.696H229V28.6375Z" fill="#131313"/>
<path d="M155.948 35.3205V87.3308H223.329V35.3205L155.948 35.3205Z" fill="#ECECEC"/>
<path d="M155.947 94.0163V146.027H223.328V94.0163H155.947Z" fill="#ECECEC"/>
<path d="M202.045 48.9111H177.228V73.7277H202.045V48.9111Z" fill="#131313"/>
<path d="M202.045 107.605H177.228V132.422H202.045V107.605Z" fill="#131313"/>
<path d="M196.32 54.6362H182.954V68.0028H196.32V54.6362Z" fill="#8A8A8A"/>
<path d="M196.32 113.33H182.954V126.697H196.32V113.33Z" fill="#8A8A8A"/>
<path d="M98.2 42.8L71 56.4L57.4 70L43.8 97.2L40.29 135.31H60.8L64.2 97.2L71 83.6L84.6 70L98.2 63.2L133.96 57L132.96 42H99.37L98.2 42.8Z" fill="#ED1B24"/>
<path d="M98.2 63.2L84.6 70L71 83.6L64.2 97.2L62.96 132H78.96L84.6 97.2L98.2 83.6L135.24 76.8L132.96 62L98.2 63.2Z" fill="#F8FC3D"/>
<path d="M98.2 83.6L84.6 97.2L82.96 134H99.76L105 110.8L111.8 104L133.96 97.2V81.98L98.2 83.6Z" fill="#1BED6F"/>
<path d="M50.6001 90.4001V83.6001H43.8V97.2001H50.6001V90.4001Z" fill="#131313"/>
<path d="M57.4 76.8V70H50.6V83.6H57.4V76.8Z" fill="#131313"/>
<path d="M84.6 56.4001V49.6001H71V56.4001H84.6Z" fill="#131313"/>
<path d="M98.2 49.6001V42.8H84.6V49.6001H98.2Z" fill="#131313"/>
<path d="M132.2 36H98.2V42.8H132.2V56.4H98.2V63.2H132.2V76.8H98.2V83.6H132.2V97.2H111.8V104H139V36H132.2Z" fill="#131313"/>
<path d="M57.4 63.2H64.2V69.9999H57.4V63.2Z" fill="#131313"/>
<path d="M64.2 56.3999H70.9999V63.1999H64.2V56.3999Z" fill="#131313"/>
<path d="M70.9999 90.4001V83.6001H64.2V97.2001H70.9999V90.4001Z" fill="#131313"/>
<path d="M84.6 63.2V69.9999H98.2V63.2H84.6Z" fill="#131313"/>
<path d="M71 76.8H77.8V83.6001H71V76.8Z" fill="#131313"/>
<path d="M77.8 70H84.6001V76.8H77.8V70Z" fill="#131313"/>
<path d="M84.6 90.3999H91.4V97.1999H84.6V90.3999Z" fill="#131313"/>
<path d="M91.4 83.6001H98.2V90.4001H91.4V83.6001Z" fill="#131313"/>
<path d="M98.2 117.6V131.2H84.6V97.2H77.8V131.2H64.2V97.2H57.4V131.2H43.8V97.2H37V138H105V110.8H98.2V117.6Z" fill="#131313"/>
<path d="M105 104H111.8V110.8H105V104Z" fill="#131313"/>
</svg>
